<?xml version="1.0" standalone="no"?>
<!DOCTYPE svg PUBLIC "-//W3C//DTD SVG 1.0//EN" "http://www.w3.org/TR/2001/REC-SVG-20010904/DTD/svg10.dtd">
<svg xmlns="http://www.w3.org/2000/svg" xmlns:xlink="http://www.w3.org/1999/xlink" id="body_1" width="500" height="400">

<defs>
        <clipPath  id="1">

            <path clip-rule="evenodd" d="M0 0L400 0L400 400L0 400z" />        </clipPath>
</defs>

<g transform="matrix(0.75 0 0 0.75 99 -0)">
	<g clip-path="url(#1)" >
		<g transform="matrix(1 0 0 1 93.979996 79.542)">
			<g transform="matrix(1 0 0 1 145.765 31.15)">
                <path d="M13.906 -18.07C 13.906 -18.07 -13.906 -12.7 -13.906 -12.7C -13.906 -12.7 -12.055 1.2 -12.055 1.2C -12.055 1.2 -9.215 18.07 -9.215 18.07C -9.215 18.07 4.844 8.28 4.844 8.28C 4.844 8.28 13.906 -18.07 13.906 -18.07z" stroke="none" fill="#8F8F8F" fill-rule="nonzero" />
			</g>
			<g transform="matrix(1 0 0 1 144.115 10.705)">
                <path d="M-15.555 -10.455C -15.555 -10.455 -7.855 10.455 -7.855 10.455C -7.855 10.455 15.555 2.375 15.555 2.375C 15.555 2.375 -15.555 -10.455 -15.555 -10.455z" stroke="none" fill="#DDDDDC" fill-rule="nonzero" />
			</g>
			<g transform="matrix(1 0 0 1 152.93 62.98)">
                <path d="M-13.4 3.9C -13.4 3.9 -8 8.3 -8 8.3C -8 8.3 3.42 10.63 3.42 10.63C 3.42 10.63 13.4 -10.63 13.4 -10.63C 13.4 -10.63 -2.5 -5.32 -2.5 -5.32C -2.5 -5.32 -13.4 3.9 -13.4 3.9z" stroke="none" fill="#8F8F8F" fill-rule="nonzero" />
			</g>
			<g transform="matrix(1 0 0 1 149.095 53.155)">
                <path d="M1.515 -13.725C 1.515 -13.725 -17.235 -13.725 -17.235 -13.725C -17.235 -13.725 -9.565 13.725 -9.565 13.725C -9.565 13.725 17.235 -0.805 17.235 -0.805C 17.235 -0.805 1.515 -13.725 1.515 -13.725z" stroke="none" fill="#C4C4C4" fill-rule="nonzero" />
			</g>
			<g transform="matrix(1 0 0 1 21.21 70.84)">
                <path d="M13.93 -13.18C 13.93 -13.18 -9.03 -6.89 -9.03 -6.89C -9.03 -6.89 -15.73 10.64 -15.73 10.64C -15.73 10.64 -1.91 13.18 -1.91 13.18C -1.91 13.18 15.73 -1.78 15.73 -1.78C 15.73 -1.78 13.93 -13.18 13.93 -13.18z" stroke="none" fill="#C4C4C4" fill-rule="nonzero" />
			</g>
			<g transform="matrix(1 0 0 1 20.23 54.845)">
                <path d="M11.93 -13.205C 11.93 -13.205 -19.98 -4.825 -19.98 -4.825C -19.98 -4.825 -8.05 9.105 -8.05 9.105C -8.05 9.105 13.66 13.205 13.66 13.205C 13.66 13.205 19.98 2.815 19.98 2.815C 19.98 2.815 11.93 -13.205 11.93 -13.205z" stroke="none" fill="#8F8F8F" fill-rule="nonzero" />
			</g>
			<g transform="matrix(1 0 0 1 16.565 31.95)">
                <path d="M15.685 -13.28C 15.685 -13.28 9.375 -11.92 9.375 -11.92C 9.375 -11.92 4.565 -18.07 4.565 -18.07C 4.565 -18.07 -16.315 18.07 -16.315 18.07C -16.315 18.07 16.315 13.56 16.315 13.56C 16.315 13.56 15.685 -13.28 15.685 -13.28z" stroke="none" fill="#DDDDDC" fill-rule="nonzero" />
			</g>
			<g transform="matrix(1 0 0 1 29.53 80.705)">
                <path d="M20.77 -7.905C 20.77 -7.905 -24.05 0.775 -24.05 0.775C -24.05 0.775 -14.42 7.905 -14.42 7.905C -14.42 7.905 24.05 1.615 24.05 1.615C 24.05 1.615 20.77 -7.905 20.77 -7.905z" stroke="none" fill="#8F8F8F" fill-rule="nonzero" />
			</g>
		</g>
		<g transform="matrix(1 0 0 1 288.94 52.690994)">
			<g transform="matrix(1 0 0 1 15.014 77.06)">
                <path d="M-4.535 24.36C -4.535 24.36 3.995 16.83 3.995 16.83C 3.995 16.83 11.365 4.29 11.365 4.29C 11.365 4.29 10.825 -24.36 10.825 -24.36C 10.825 -24.36 -6.315 -6.94 -6.315 -6.94C -6.315 -6.94 -11.365 13.09 -11.365 13.09C -11.365 13.09 -4.535 24.36 -4.535 24.36z" stroke="none" fill="#8A6651" fill-rule="nonzero" />
			</g>
			<g transform="matrix(1 0 0 1 31.404 47.07)">
                <path d="M24.175 -46.82C 24.175 -46.82 21.535 -44.87 21.535 -44.87C 21.535 -44.87 9.755 -24.02 9.755 -24.02C 9.755 -24.02 4.865 -17.1 4.865 -17.1C 4.865 -17.1 6.106 -3.06 6.106 -3.06C 6.106 -3.06 -5.024 4.46 -5.024 4.46C -5.024 4.46 -3.354 9.97 -3.354 9.97C -3.354 9.97 -10.245 25.99 -10.245 25.99C -10.245 25.99 -16.654 30.17 -16.654 30.17C -16.654 30.17 -24.175 46.66 -24.175 46.66C -24.175 46.66 -12.394 46.82 -12.394 46.82C -12.394 46.82 0.535 10.15 0.535 10.15C 0.535 10.15 12.446 0.14 12.446 0.14C 12.446 0.14 11.986 -17.41 11.986 -17.41C 11.986 -17.41 24.175 -46.82 24.175 -46.82z" stroke="none" fill="#35785D" fill-rule="nonzero" />
			</g>
			<g transform="matrix(1 0 0 1 21.4 64.385)">
                <path d="M1.21 12.035C 1.21 12.035 6.649 -7.345 6.649 -7.345C 6.649 -7.345 4.981 -12.855 4.981 -12.855C 4.981 -12.855 -6.649 12.855 -6.649 12.855C -6.649 12.855 1.21 12.035 1.21 12.035z" stroke="none" fill="#53AF8A" fill-rule="nonzero" />
			</g>
			<g transform="matrix(1 0 0 1 45.924 15.11)">
                <path d="M7.015 -12.91C 7.015 -12.91 9.655 -14.86 9.655 -14.86C 9.655 -14.86 5.225 -14.52 5.225 -14.52C 5.225 -14.52 -9.655 14.86 -9.655 14.86C -9.655 14.86 -3.525 11.27 -3.525 11.27C -3.525 11.27 7.015 -12.91 7.015 -12.91z" stroke="none" fill="#53AF8A" fill-rule="nonzero" />
			</g>
			<g transform="matrix(1 0 0 1 13.315 69.865)">
                <path d="M-13.065 7.375C -13.065 7.375 -8.586 -8.015 -8.586 -8.015C -8.586 -8.015 10.315 -20.285 10.315 -20.285C 10.315 -20.285 13.065 -18.335 13.065 -18.335C 13.065 -18.335 9.294 -10.175 9.294 -10.175C 9.294 -10.175 1.475 -3.325 1.475 -3.325C 1.475 -3.325 1.435 7.375 1.435 7.375C 1.435 7.375 -1.885 14.645 -1.885 14.645C -1.885 14.645 -9.666 20.285 -9.666 20.285C -9.666 20.285 -13.065 7.375 -13.065 7.375z" stroke="none" fill="#DFBCA4" fill-rule="nonzero" />
			</g>
			<g transform="matrix(1 0 0 1 28.35 72.71)">
                <path d="M9.34 -20.32C 9.34 -20.32 7.92 11.85 7.92 11.85C 7.92 11.85 -9.34 21.18 -9.34 21.18C -9.34 21.18 -1.97 -21.18 -1.97 -21.18C -1.97 -21.18 9.34 -20.32 9.34 -20.32z" stroke="none" fill="#C3977A" fill-rule="nonzero" />
			</g>
		</g>
		<g transform="matrix(1 0 0 1 -7.6293945E-06 0.0010223389)">
			<g transform="matrix(1 0 0 1 276.52 164.845)">
                <path d="M26.53 9.265C 26.53 9.265 7.671 -28.895 7.671 -28.895C 7.671 -28.895 -8.51 -8.645 -8.51 -8.645C -8.51 -8.645 -26.53 28.895 -26.53 28.895C -26.53 28.895 26.53 9.265 26.53 9.265z" stroke="none" fill="#738D56" fill-rule="nonzero" />
			</g>
			<g transform="matrix(1 0 0 1 249.61 167.475)">
                <path d="M-16.1 -21.055C -16.1 -21.055 -18.4 1.035 -18.4 1.035C -18.4 1.035 5.921 21.055 5.921 21.055C 5.921 21.055 18.4 -11.275 18.4 -11.275C 18.4 -11.275 -16.1 -21.055 -16.1 -21.055z" stroke="none" fill="#99C26C" fill-rule="nonzero" />
			</g>
			<g transform="matrix(1 0 0 1 253.095 171.06)">
                <path d="M-15.895 27.01C -15.895 27.01 18.525 32.28 18.525 32.28C 18.525 32.28 39.495 17.47 39.495 17.47C 39.495 17.47 45.235 0.12 45.235 0.12C 45.235 0.12 2.435 17.47 2.435 17.47C 2.435 17.47 -15.895 -1.96 -15.895 -1.96C -15.895 -1.96 -45.235 -32.28 -45.235 -32.28C -45.235 -32.28 -15.895 27.01 -15.895 27.01z" stroke="none" fill="#5A753C" fill-rule="nonzero" />
			</g>
			<g transform="matrix(1 0 0 1 289.55 166.985)">
                <path d="M-0.36 -37.055C -0.36 -37.055 -5.36 -31.035 -5.36 -31.035C -5.36 -31.035 8.78 4.195 8.78 4.195C 8.78 4.195 -17.93 36.355 -17.93 36.355C -17.93 36.355 -10.131 37.055 -10.131 37.055C -10.131 37.055 17.93 6.165 17.93 6.165C 17.93 6.165 -0.36 -37.055 -0.36 -37.055z" stroke="none" fill="#35785D" fill-rule="nonzero" />
			</g>
		</g>
		<g transform="matrix(1 0 0 1 108.840004 131.39801)">
			<g transform="matrix(1 0 0 1 121.92 62.338)">
                <path d="M-6.44 8.735C -6.44 8.735 11.373 6.494 11.373 6.494C 11.373 6.494 4.757 -23.841 4.757 -23.841C 4.757 -23.841 -6.44 8.735 -6.44 8.735z" stroke="none" fill="#738D56" fill-rule="nonzero" />
			</g>
			<g transform="matrix(1 0 0 1 37.725 71.283)">
                <path d="M-1.315 -30.28C -1.315 -30.28 -11.255 -31.78 -11.255 -31.78C -11.255 -31.78 -37.475 -34.53 -37.475 -34.53C -37.475 -34.53 -2.465 -6.28 -2.465 -6.28C -2.465 -6.28 0.005 2.02 0.005 2.02C 0.005 2.02 15.985 34.53 15.985 34.53C 15.985 34.53 37.475 13.57 37.475 13.57C 37.475 13.57 -1.315 -30.28 -1.315 -30.28z" stroke="none" fill="#738D56" fill-rule="nonzero" />
			</g>
			<g transform="matrix(1 0 0 1 39.21 82.428)">
                <path d="M-16.21 -4.115C -16.21 -4.115 -4.64 16.185 -4.64 16.185C -4.64 16.185 7.48 21.625 7.48 21.625C 7.48 21.625 16.21 9.195 16.21 9.195C 16.21 9.195 -1.48 -21.625 -1.48 -21.625C -1.48 -21.625 -16.21 -4.115 -16.21 -4.115z" stroke="none" fill="#446024" fill-rule="nonzero" />
			</g>
			<g transform="matrix(1 0 0 1 91.644 50.464)">
                <path d="M-22.945 -10.974C -8.091 4.545 6.761 20.064 21.615 35.582C 22.058 12.747 22.501 -10.087 22.945 -32.922C 22.195 -33.425 -8.314 -35.582 -8.314 -35.582C -10.733 -33.472 -13.698 -30.443 -16.424 -26.325C -20.329 -20.422 -22.092 -14.773 -22.945 -10.974z" stroke="none" fill="#53AF8A" fill-rule="nonzero" />
			</g>
			<g transform="matrix(1 0 0 1 72.195 53.653)">
                <path d="M-4.735 -29.521C -4.735 -29.521 -7.945 -15.951 -7.945 -15.951C -7.945 -15.951 -38.025 -2.6 -38.025 -2.6C -38.025 -2.6 7.655 29.13 7.655 29.13C 7.655 29.13 7.935 29.521 7.935 29.521C 7.935 29.521 38.025 19.22 38.025 19.22C 38.025 19.22 -4.735 -29.521 -4.735 -29.521z" stroke="none" fill="#53AF8A" fill-rule="nonzero" />
			</g>
			<g transform="matrix(1 0 0 1 37.08 33.623)">
                <path d="M-11.03 15.04C -11.03 15.04 -2.91 17.43 -2.91 17.43C -2.91 17.43 32.64 4.08 32.64 4.08C 32.64 4.08 -18.05 -17.43 -18.05 -17.43C -18.05 -17.43 -32.64 -1.46 -32.64 -1.46C -32.64 -1.46 -11.03 15.04 -11.03 15.04z" stroke="none" fill="#71C8A6" fill-rule="nonzero" />
			</g>
			<g transform="matrix(1 0 0 1 97.195 3.413)">
                <path d="M0.135 0.05C 0.135 0.05 0.075 -0.07 0.075 -0.07C 0.075 -0.07 -0.135 0.07 -0.135 0.07C -0.135 0.07 0.135 0.05 0.135 0.05z" stroke="none" fill="#35785D" fill-rule="nonzero" />
			</g>
			<g transform="matrix(1 0 0 1 59.055 76.408)">
                <path d="M17.835 1.775C 17.835 1.775 -54.615 -44.245 -54.615 -44.245C -54.615 -44.245 -58.805 -39.655 -58.805 -39.655C -58.805 -39.655 16.145 8.445 16.145 8.445C 16.145 8.445 43.755 44.245 43.755 44.245C 43.755 44.245 58.805 -3.525 58.805 -3.525C 58.805 -3.525 17.835 1.775 17.835 1.775z" stroke="none" fill="#35785D" fill-rule="nonzero" />
			</g>
			<g transform="matrix(1 0 0 1 44.375 21.753)">
                <path d="M23.085 2.38C 23.085 2.38 6.465 -8.98 6.465 -8.98C 6.465 -8.98 -24.095 -15.95 -24.095 -15.95C -24.095 -15.95 -25.345 -5.56 -25.345 -5.56C -25.345 -5.56 25.345 15.95 25.345 15.95C 25.345 15.95 23.085 2.38 23.085 2.38z" stroke="none" fill="#35785D" fill-rule="nonzero" />
			</g>
			<g transform="matrix(1 0 0 1 77.564 18.528)">
                <path d="M-7.76 18.278C -2.586 11.192 2.586 4.105 7.76 -2.981C 5.765 -8.08 3.77 -13.179 1.774 -18.278C -1.329 -13.401 -4.432 -8.523 -7.536 -3.646C -7.611 3.662 -7.685 10.97 -7.76 18.278z" stroke="none" fill="#35785D" fill-rule="nonzero" />
			</g>
		</g>
		<g transform="matrix(1 0 0 1 64.829994 348.62)">
			<g transform="matrix(1 0 0 1 126.275 39.935)">
                <path d="M-126.275 0.685C -126.275 0.685 -27.295 11.445 -27.295 11.445C -27.295 11.445 126.275 -0.775 126.275 -0.775C 126.275 -0.775 -19.405 -11.445 -19.405 -11.445C -19.405 -11.445 -126.275 0.685 -126.275 0.685z" stroke="none" fill="#2B2B2B" fill-rule="nonzero" fill-opacity="0.09803922" />
			</g>
			<g transform="matrix(1 0 0 1 142.105 13.815)">
                <path d="M-14.805 -1.265C -14.805 -1.265 -14.805 12.405 -14.805 12.405C -14.805 12.405 2.075 7.195 2.075 7.195C 2.075 7.195 11.665 -0.095 11.665 -0.095C 11.665 -0.095 14.805 -12.405 14.805 -12.405C 14.805 -12.405 -14.805 -1.265 -14.805 -1.265z" stroke="none" fill="#35785D" fill-rule="nonzero" />
			</g>
			<g transform="matrix(1 0 0 1 65.5 13.27)">
                <path d="M-10.72 -13.02C -10.72 -13.02 -15.79 13.02 -15.79 13.02C -15.79 13.02 -1.18 12.95 -1.18 12.95C -1.18 12.95 12.68 4.18 12.68 4.18C 12.68 4.18 15.79 -2.371 15.79 -2.371C 15.79 -2.371 -10.72 -13.02 -10.72 -13.02z" stroke="none" fill="#35785D" fill-rule="nonzero" />
			</g>
			<g transform="matrix(1 0 0 1 152.315 24.465)">
                <path d="M1.454 -10.745C 1.454 -10.745 -25.016 1.755 -25.016 1.755C -25.016 1.755 -25.016 8.856 -25.016 8.856C -25.016 8.856 -2.556 10.745 -2.556 10.745C -2.556 10.745 25.015 8.856 25.015 8.856C 25.015 8.856 1.454 -10.745 1.454 -10.745z" stroke="none" fill="#53AF8A" fill-rule="nonzero" />
			</g>
			<g transform="matrix(1 0 0 1 152.315 36.7)">
                <path d="M-25.015 -3.38C -25.015 -3.38 25.015 -3.38 25.015 -3.38C 25.015 -3.38 25.015 3.38 25.015 3.38C 25.015 3.38 -25.015 3.38 -25.015 3.38C -25.015 3.38 -25.015 -3.38 -25.015 -3.38z" stroke="none" fill="#35785D" fill-rule="nonzero" />
			</g>
			<g transform="matrix(1 0 0 1 65.795 28.95)">
                <path d="M12.385 -11.5C 12.385 -11.5 18.545 8.12 18.545 8.12C 18.545 8.12 1.215 11.5 1.215 11.5C 1.215 11.5 -18.545 8.12 -18.545 8.12C -18.545 8.12 -16.085 -2.66 -16.085 -2.66C -16.085 -2.66 12.385 -11.5 12.385 -11.5z" stroke="none" fill="#53AF8A" fill-rule="nonzero" />
			</g>
			<g transform="matrix(1 0 0 1 65.795 40.45)">
                <path d="M-18.545 -3.38C -18.545 -3.38 18.545 -3.38 18.545 -3.38C 18.545 -3.38 18.545 3.38 18.545 3.38C 18.545 3.38 -18.545 3.38 -18.545 3.38C -18.545 3.38 -18.545 -3.38 -18.545 -3.38z" stroke="none" fill="#35785D" fill-rule="nonzero" />
			</g>
			<g transform="matrix(1 0 0 1 0 0)">
                <path d="" stroke="none" fill="#728C56" fill-rule="nonzero" />
                <path d="" stroke="#2A2A2A" stroke-width="4" fill="none" />
			</g>
		</g>
		<g transform="matrix(1 0 0 1 101.23 197.82101)">
			<g transform="matrix(1 0 0 1 73.755 87.735)">
                <path d="M67.305 -86.995C 67.305 -86.995 65.613 -84.507 65.613 -84.507C 65.613 -84.507 15.665 -11.075 15.665 -11.075C 15.665 -11.075 -10.725 -62.536 -10.725 -62.536C -10.725 -62.536 -31.575 -55.545 -31.575 -55.545C -31.575 -55.545 -71.105 54.525 -71.105 54.525C -71.105 54.525 -17.685 86.855 -17.685 86.855C -17.685 86.855 -17.495 86.995 -17.495 86.995C -17.495 86.995 71.105 52.115 71.105 52.115C 71.105 52.115 67.305 -86.995 67.305 -86.995z" stroke="none" fill="#738D56" fill-rule="nonzero" />
			</g>
			<g transform="matrix(1 0 0 1 96.47 83.7)">
                <path d="M25.95 -77.24C 25.95 -77.24 8.47 -46.71 8.47 -46.71C 8.47 -46.71 -0.441 -54.699 -0.441 -54.699C -0.441 -54.699 -13.66 -65.27 -13.66 -65.27C -13.66 -65.27 -33.441 -58.5 -33.441 -58.5C -33.441 -58.5 -39.5 83.449 -39.5 83.449C -39.5 83.449 39.5 -83.449 39.5 -83.449C 39.5 -83.449 26.62 -79.05 26.62 -79.05C 26.62 -79.05 25.95 -77.24 25.95 -77.24z" stroke="none" fill="#99C26C" fill-rule="nonzero" />
			</g>
			<g transform="matrix(1 0 0 1 72.66 157.289)">
                <path d="M-15.69 9.86C -15.69 9.86 -70.01 -15.03 -70.01 -15.03C -70.01 -15.03 -72.41 -7.459 -72.41 -7.459C -72.41 -7.459 -16.59 17.3 -16.59 17.3C -16.59 17.3 -16.4 17.44 -16.4 17.44C -16.4 17.44 72.41 -9.23 72.41 -9.23C 72.41 -9.23 72.2 -17.44 72.2 -17.44C 72.2 -17.44 -15.69 9.86 -15.69 9.86z" stroke="none" fill="#35785D" fill-rule="nonzero" />
			</g>
			<g transform="matrix(1 0 0 1 0 0)">
                <path d="M140.249 -0.544C 140.249 -0.544 118.228 -0.13 118.228 -0.13C 118.228 -0.13 116.645 28.805 116.27 29.18C 115.895 29.555 140.895 26.68 140.895 26.68C 140.895 26.68 140.249 -0.544 140.249 -0.544z" stroke="none" fill="#728C56" fill-rule="nonzero" />
			</g>
		</g>
		<g transform="matrix(1 0 0 1 54.600006 235.20201)">
			<g transform="matrix(1 0 0 1 29.445 35.039)">
                <path d="M5.095 -10.98C 5.095 -10.98 -5.205 0.89 -5.205 0.89C -5.205 0.89 -9.525 5.871 -9.525 5.871C -9.525 5.871 -4.005 10.98 -4.005 10.98C -4.005 10.98 9.525 -7.709 9.525 -7.709C 9.525 -7.709 5.095 -10.98 5.095 -10.98z" stroke="none" fill="#C3977A" fill-rule="nonzero" />
			</g>
			<g transform="matrix(1 0 0 1 18.025 22.904)">
                <path d="M6.215 -18.006C 6.215 -18.006 -6.965 -13.025 -6.965 -13.025C -6.965 -13.025 -12.325 -1.404 -12.325 -1.404C -12.325 -1.404 -5.535 14.525 -5.535 14.525C -5.535 14.525 1.895 18.006 1.895 18.006C 1.895 18.006 1.905 17.995 1.905 17.995C 1.905 17.995 12.325 7.296 12.325 7.296C 12.325 7.296 6.215 -18.006 6.215 -18.006z" stroke="none" fill="#DFBCA4" fill-rule="nonzero" />
			</g>
			<g transform="matrix(1 0 0 1 23.055 15.225)">
                <path d="M11.995 8.254C 11.995 8.254 -7.555 -14.975 -7.555 -14.975C -7.555 -14.975 -11.995 -5.346 -11.995 -5.346C -11.995 -5.346 7.295 14.975 7.295 14.975C 7.295 14.975 11.485 8.834 11.485 8.834C 11.485 8.834 11.995 8.254 11.995 8.254z" stroke="none" fill="#8A6651" fill-rule="nonzero" />
			</g>
			<g transform="matrix(1 0 0 1 10.09 37.429)">
                <path d="M9.83 3.48C 9.83 3.48 -4.39 -15.93 -4.39 -15.93C -4.39 -15.93 -9.84 2.951 -9.84 2.951C -9.84 2.951 -0.87 15.93 -0.87 15.93C -0.87 15.93 9.84 3.469 9.84 3.469C 9.84 3.469 9.83 3.48 9.83 3.48z" stroke="none" fill="#C3977A" fill-rule="nonzero" />
			</g>
		</g>
		<g transform="matrix(1 0 0 1 63.520004 167.901)">
			<g transform="matrix(1 0 0 1 39.12 30.815)">
                <path d="M6.45 -30.565C 6.45 -30.565 -33.95 23.145 -33.95 23.145C -33.95 23.145 14.77 30.565 14.77 30.565C 14.77 30.565 33.95 -16.265 33.95 -16.265C 33.95 -16.265 6.45 -30.565 6.45 -30.565z" stroke="none" fill="#99C26C" fill-rule="nonzero" />
			</g>
			<g transform="matrix(1 0 0 1 38.48 54.685)">
                <path d="M-33.31 -0.725C -33.31 -0.725 -33.31 -0.725 -33.31 -0.725C -33.31 -0.725 -13.92 38.174 -13.92 38.174C -13.92 38.174 -2.97 34.385 -2.97 34.385C -2.97 34.385 33.31 -38.174 33.31 -38.174C 33.31 -38.174 -33.31 -0.725 -33.31 -0.725z" stroke="none" fill="#738D56" fill-rule="nonzero" />
			</g>
			<g transform="matrix(1 0 0 1 53.805 51.675)">
                <path d="M19.265 -37.125C 19.265 -37.125 -29.245 37.125 -29.245 37.125C -29.245 37.125 -11.655 35.805 -11.655 35.805C -11.655 35.805 -1.555 29.694 -1.555 29.694C -1.555 29.694 29.245 -27.375 29.245 -27.375C 29.245 -27.375 19.265 -37.125 19.265 -37.125z" stroke="none" fill="#5A753C" fill-rule="nonzero" />
			</g>
			<g transform="matrix(1 0 0 1 26.25 75.731)">
                <path d="M-4.82 21.77C -4.82 21.77 21.28 13.07 21.28 13.07C 21.28 13.07 26 5.639 26 5.639C 26 5.639 -1.69 13.07 -1.69 13.07C -1.69 13.07 -21.08 -21.77 -21.08 -21.77C -21.08 -21.77 -26 -15.31 -26 -15.31C -26 -15.31 -4.82 21.77 -4.82 21.77z" stroke="none" fill="#35785D" fill-rule="nonzero" />
			</g>
		</g>
		<g transform="matrix(1 0 0 1 104.32 -0.23899841)">
			<g transform="matrix(1 0 0 1 78.885 81.721)">
                <path d="M52.285 49.77C 52.285 49.77 35.655 -47.33 35.655 -47.33C 35.655 -47.33 8.015 -68.62 8.015 -68.62C 8.015 -68.62 -9.525 -53.79 -9.525 -53.79C -9.525 -53.79 -45.945 -56.18 -45.945 -56.18C -45.945 -56.18 -52.285 -50.41 -52.285 -50.41C -52.285 -50.41 -39.105 -24.68 -39.105 -24.68C -39.105 -24.68 -16.465 68.62 -16.465 68.62C -16.465 68.62 16.845 59.43 16.845 59.43C 16.845 59.43 52.285 49.77 52.285 49.77z" stroke="none" fill="#DFBCA4" fill-rule="nonzero" />
			</g>
			<g transform="matrix(1 0 0 1 98.095 21.411)">
                <path d="M-11.195 -2.77C -11.195 -2.77 16.445 12.98 16.445 12.98C 16.445 12.98 -0.035 -9.01 -0.035 -9.01C -0.035 -9.01 -13.595 -12.98 -13.595 -12.98C -13.595 -12.98 -16.445 -8.31 -16.445 -8.31C -16.445 -8.31 -11.195 -2.77 -11.195 -2.77z" stroke="none" fill="#EBEBEB" fill-rule="nonzero" />
			</g>
			<g transform="matrix(1 0 0 1 71.766 17.321)">
                <path d="M-14.475 3.71C -14.475 3.71 0.565 17.07 0.565 17.07C 0.565 17.07 15.135 1.32 15.135 1.32C 15.135 1.32 12.735 -8.889 12.735 -8.889C 12.735 -8.889 -15.135 -17.07 -15.135 -17.07C -15.135 -17.07 -14.475 3.71 -14.475 3.71z" stroke="none" fill="#DDDDDC" fill-rule="nonzero" />
			</g>
			<g transform="matrix(1 0 0 1 51.211 17.346)">
                <path d="M-21.12 3.685C -21.12 3.685 -20.83 6.945 -20.83 6.945C -20.83 6.945 -18.58 8.794 -18.58 8.794C -18.58 8.794 21.069 17.095 21.069 17.095C 21.069 17.095 21.12 17.046 21.12 17.046C 21.12 17.046 5.42 -17.095 5.42 -17.095C 5.42 -17.095 -21.12 3.685 -21.12 3.685z" stroke="none" fill="#C4C4C4" fill-rule="nonzero" />
			</g>
			<g transform="matrix(1 0 0 1 34.04 88.006)">
                <path d="M8.82 -45.545C 8.82 -45.545 -1.1 -62.465 -1.1 -62.465C -1.1 -62.465 -17.44 -34.635 -17.44 -34.635C -17.44 -34.635 -9.24 -25.155 -9.24 -25.155C -9.24 -25.155 -7.44 -0.205 -7.44 -0.205C -7.44 -0.205 -14.85 -8.525 -14.85 -8.525C -14.85 -8.525 -20.24 -0.355 -20.24 -0.355C -20.24 -0.355 -29.27 2.985 -29.27 2.985C -29.27 2.985 -21.85 24.635 -21.85 24.635C -21.85 24.635 -14.21 22.725 -14.21 22.725C -14.21 22.725 -9.24 23.725 -9.24 23.725C -9.24 23.725 -11.5 37.285 -11.5 37.285C -11.5 37.285 -9.24 49.435 -9.24 49.435C -9.24 49.435 23.25 62.055 23.25 62.055C 23.25 62.055 29.27 62.465 29.27 62.465C 29.27 62.465 8.82 -45.545 8.82 -45.545z" stroke="none" fill="#C3977A" fill-rule="nonzero" />
			</g>
			<g transform="matrix(1 0 0 1 24.795 116.676)">
                <path d="M-4.965 -5.945C -4.965 -5.945 -2.255 8.615 -2.255 8.615C -2.255 8.615 4.965 -8.615 4.965 -8.615C 4.965 -8.615 -4.965 -5.945 -4.965 -5.945z" stroke="none" fill="#8A6651" fill-rule="nonzero" />
			</g>
			<g transform="matrix(1 0 0 1 17.17 96.411)">
                <path d="M-6.38 -2.75C -6.38 -2.75 6.38 5.79 6.38 5.79C 6.38 5.79 3.02 -5.79 3.02 -5.79C 3.02 -5.79 -6.38 -2.75 -6.38 -2.75z" stroke="none" fill="#8A6651" fill-rule="nonzero" />
			</g>
			<g transform="matrix(1 0 0 1 68.085 151.121)">
                <path d="M10.795 -5.32C 10.795 -5.32 -10.795 -1.06 -10.795 -1.06C -10.795 -1.06 5.615 5.32 5.615 5.32C 5.615 5.32 10.795 -5.32 10.795 -5.32z" stroke="none" fill="#8A6651" fill-rule="nonzero" />
			</g>
			<g transform="matrix(1 0 0 1 16.595 56.236)">
                <path d="M-16.345 -11.545C -16.345 -11.545 -2.795 31.415 -2.795 31.415C -2.795 31.415 1.535 29.865 1.535 29.865C 1.535 29.865 10.765 35.205 10.765 35.205C 10.765 35.205 13.425 1.365 13.425 1.365C 13.425 1.365 2.795 -4.865 2.795 -4.865C 2.795 -4.865 16.345 -30.695 16.345 -30.695C 16.345 -30.695 13.495 -35.205 13.495 -35.205C 13.495 -35.205 -16.345 -11.545 -16.345 -11.545z" stroke="none" fill="#8F8F8F" fill-rule="nonzero" />
			</g>
		</g>
		<g transform="matrix(1 0 0 1 7.6293945E-06 0.0010070801)">
			<g transform="matrix(1 0 0 1 167.895 207.805)">
                <path d="M17.835 1.775C 17.835 1.775 -54.615 -44.245 -54.615 -44.245C -54.615 -44.245 -58.805 -39.655 -58.805 -39.655C -58.805 -39.655 16.145 8.445 16.145 8.445C 16.145 8.445 43.755 44.245 43.755 44.245C 43.755 44.245 58.805 -3.525 58.805 -3.525C 58.805 -3.525 17.835 1.775 17.835 1.775z" stroke="none" fill="#35785D" fill-rule="nonzero" />
			</g>
		</g>
		<g transform="matrix(1 6.2554336E-06 -6.2554336E-06 1 104.32064 -0.23960876)">
			<g transform="matrix(1 0 0 1 94.395 181.821)">
                <path d="M-3.545 -80.88C -3.545 -80.88 -27.915 -58.95 -27.915 -58.95C -27.915 -58.95 -12.985 28 -12.985 28C -12.985 28 14.375 53.189 14.375 53.189C 14.375 53.189 16.465 56.9 16.465 56.9C 16.465 56.9 15.516 60.59 15.516 60.59C 15.516 60.59 12.935 70.47 12.935 70.47C 12.935 70.47 27.915 80.88 27.915 80.88C 27.915 80.88 17.925 -25.38 17.925 -25.38C 17.925 -25.38 3.695 -79.31 3.695 -79.31C 3.695 -79.31 -3.545 -80.88 -3.545 -80.88z" stroke="none" fill="#C4C4C4" fill-rule="nonzero" />
			</g>
			<g transform="matrix(1 0 0 1 118.03 180.575)">
                <path d="M7.15 51.925C 7.15 51.925 19.94 18.225 19.94 18.225C 19.94 18.225 5.34 -68.445 5.34 -68.445C 5.34 -68.445 -15.81 -82.125 -15.81 -82.125C -15.81 -82.125 -19.94 -78.065 -19.94 -78.065C -19.94 -78.065 4.28 82.125 4.28 82.125C 4.28 82.125 12.5 66.165 12.5 66.165C 12.5 66.165 8.29 59.325 8.29 59.325C 8.29 59.325 5.97 55.946 5.97 55.946C 5.97 55.946 7.15 51.925 7.15 51.925z" stroke="none" fill="#EBEBEB" fill-rule="nonzero" />
			</g>
			<g transform="matrix(1 0 0 1 117.545 237.456)">
                <path d="M8.775 2.445C 8.775 2.445 -7.634 4.955 -7.634 4.955C -7.634 4.955 -8.775 -2.446 -8.775 -2.446C -8.775 -2.446 7.635 -4.955 7.635 -4.955C 7.635 -4.955 8.775 2.445 8.775 2.445z" stroke="none" fill="#446024" fill-rule="nonzero" />
			</g>
		</g>
		<g transform="matrix(1 0 0 1 189.5 110.022)">
			<g transform="matrix(1 0 0 1 12.11 4.49)">
                <path d="M11.86 0.36C 11.86 0.36 -10.85 4.24 -10.85 4.24C -10.85 4.24 -11.86 -0.37 -11.86 -0.37C -11.86 -0.37 10.84 -4.24 10.84 -4.24C 10.84 -4.24 11.86 0.36 11.86 0.36z" stroke="none" fill="#8A6651" fill-rule="nonzero" />
			</g>
		</g>
		<g transform="matrix(1 0 0 1 157.221 45.762)">
			<g transform="matrix(1 0 0 1 69.349 33.895)">
                <path d="M-0.029 -0.135C -0.029 -0.135 0.029 0.135 0.029 0.135C 0.029 0.135 0.001 -0.135 0.001 -0.135C 0.001 -0.135 -0.029 -0.135 -0.029 -0.135z" stroke="none" fill="#8F8F8F" fill-rule="nonzero" />
			</g>
			<g transform="matrix(1 0 0 1 27.395 29.985)">
                <path d="M-25.295 -11.705C -25.295 -11.705 10.555 24.955 10.555 24.955C 10.555 24.955 8.725 -6.275 8.725 -6.275C 8.725 -6.275 -4.465 -19.025 -4.465 -19.025C -4.465 -19.025 6.715 -20.985 6.715 -20.985C 6.715 -20.985 12.475 -4.915 12.475 -4.915C 12.475 -4.915 17.826 3.955 17.826 3.955C 17.826 3.955 25.295 -22.615 25.295 -22.615C 25.295 -22.615 10.325 -24.955 10.325 -24.955C 10.325 -24.955 6.715 -20.985 6.715 -20.985C 6.715 -20.985 -4.465 -19.025 -4.465 -19.025C -4.465 -19.025 -10.935 -22.175 -10.935 -22.175C -10.935 -22.175 -25.295 -11.705 -25.295 -11.705z" stroke="none" fill="#C3977A" fill-rule="nonzero" />
			</g>
			<g transform="matrix(1 0 0 1 8.355 11.045)">
                <path d="M6.775 -7.235C 6.775 -7.235 8.105 -3.235 8.105 -3.235C 8.105 -3.235 -6.255 7.235 -6.255 7.235C -6.255 7.235 -8.105 2.555 -8.105 2.555C -8.105 2.555 6.775 -7.235 6.775 -7.235z" stroke="none" fill="#8F8F8F" fill-rule="nonzero" />
			</g>
			<g transform="matrix(1 0 0 1 44.915 3.81)">
                <path d="M-8.785 -3.56C -8.785 -3.56 -7.195 1.22 -7.195 1.22C -7.195 1.22 7.775 3.56 7.775 3.56C 7.775 3.56 8.785 0.32 8.785 0.32C 8.785 0.32 -8.785 -3.56 -8.785 -3.56z" stroke="none" fill="#8F8F8F" fill-rule="nonzero" />
			</g>
			<g transform="matrix(1 0 0 1 36.125 31.97)">
                <path d="M-2.015 -22.97C -2.015 -22.97 6.125 -11.39 6.125 -11.39C 6.125 -11.39 13.195 20.48 13.195 20.48C 13.195 20.48 1.825 22.97 1.825 22.97C 1.825 22.97 -4.335 -8.5 -4.335 -8.5C -4.335 -8.5 -13.195 -21.01 -13.195 -21.01C -13.195 -21.01 -2.015 -22.97 -2.015 -22.97z" stroke="none" fill="#E8C9B6" fill-rule="nonzero" />
			</g>
			<g transform="matrix(1 0 0 1 43.635 56.04)">
                <path d="M5.685 -3.59C 5.685 -3.59 -5.685 -1.1 -5.685 -1.1C -5.685 -1.1 2.025 3.59 2.025 3.59C 2.025 3.59 5.685 -3.59 5.685 -3.59z" stroke="none" fill="#8F8F8F" fill-rule="nonzero" />
			</g>
		</g>
		<g transform="matrix(1 0 0 1 169.03 64.102)">
			<g transform="matrix(1 0 0 1 4.49 11.98)">
                <path d="M0 -4.24C 2.342 -4.24 4.24 -2.342 4.24 0C 4.24 2.342 2.342 4.24 0 4.24C -2.342 4.24 -4.24 2.342 -4.24 0C -4.24 -2.342 -2.342 -4.24 0 -4.24z" stroke="none" fill="#2B2B2B" fill-rule="nonzero" />
			</g>
			<g transform="matrix(1 0 0 1 37.51 4.49)">
                <path d="M0 -4.24C 2.342 -4.24 4.24 -2.342 4.24 0C 4.24 2.342 2.342 4.24 0 4.24C -2.342 4.24 -4.24 2.342 -4.24 0C -4.24 -2.342 -2.342 -4.24 0 -4.24z" stroke="none" fill="#2B2B2B" fill-rule="nonzero" />
			</g>
		</g>
	</g>
</g>
</svg>
